<?xml version="1.0" encoding="UTF-8"?>
<!DOCTYPE svg PUBLIC "-//W3C//DTD SVG 1.1//EN" "http://www.w3.org/Graphics/SVG/1.1/DTD/svg11.dtd">
<!-- Creator: CorelDRAW 2021 (64-Bit) -->
<svg xmlns="http://www.w3.org/2000/svg" xml:space="preserve" width="3.8419mm" height="5.8492mm" version="1.1" style="shape-rendering:geometricPrecision; text-rendering:geometricPrecision; image-rendering:optimizeQuality; fill-rule:evenodd; clip-rule:evenodd"
viewBox="0 0 53.03 80.74"
 xmlns:xlink="http://www.w3.org/1999/xlink"
 xmlns:xodm="http://www.corel.com/coreldraw/odm/2003">
 <defs>
  <style type="text/css">
   <![CDATA[
    .fil0 {fill:#08A88A;fill-rule:nonzero}
    .fil1 {fill:#121331;fill-rule:nonzero}
   ]]>
  </style>
 </defs>
 <g id="Layer_x0020_1">
  <metadata id="CorelCorpID_0Corel-Layer"/>
  <g id="_1648288969728">
   <g>
    <g>
     <path class="fil0" d="M40.21 61.75c-0.69,0 -1.26,0.56 -1.26,1.26l0 12.88c0,1.29 -1.05,2.34 -2.34,2.34l-1.02 0 0 -15.01c0,-0.69 -0.56,-1.26 -1.26,-1.26 -0.69,0 -1.26,0.56 -1.26,1.26l0 15.01 -3.76 0 0 -15.01c0,-0.69 -0.56,-1.26 -1.26,-1.26 -0.69,0 -1.26,0.56 -1.26,1.26l0 15.01 -16.08 0c-1.29,0 -2.34,-1.05 -2.34,-2.34l0 -12.88c0,-0.69 -0.56,-1.26 -1.26,-1.26 -0.69,0 -1.26,0.56 -1.26,1.26l0 12.88c0,2.68 2.18,4.85 4.85,4.85l25.88 0c2.68,0 4.85,-2.18 4.85,-4.85l0 -12.88c0,-0.69 -0.56,-1.26 -1.26,-1.26z"/>
     <path class="fil0" d="M26.24 47.47l0 7.01c0,0.69 0.56,1.26 1.26,1.26l9.02 0c0.69,0 1.26,-0.56 1.26,-1.26l0 -7.01c0,-0.69 -0.56,-1.26 -1.26,-1.26l-9.02 0c-0.69,0 -1.26,0.56 -1.26,1.26zm2.51 1.26l6.51 0 0 4.49 -6.51 0 0 -4.49z"/>
     <path class="fil0" d="M22.42 23.1l0 1.05c0,0.69 0.56,1.26 1.26,1.26 0.69,0 1.26,-0.56 1.26,-1.26l0 -0.95c0.65,-0.14 1.24,-0.42 1.71,-0.8 0.73,-0.6 1.16,-1.45 1.18,-2.34 0.06,-2.56 -2.28,-3.21 -3.68,-3.59 -1.71,-0.47 -1.69,-0.64 -1.66,-0.96 0.03,-0.28 0.32,-0.58 0.66,-0.69 0.79,-0.26 1.81,0.19 2.28,0.99 0.35,0.6 1.12,0.8 1.72,0.45 0.6,-0.35 0.8,-1.12 0.45,-1.72 -0.6,-1.03 -1.57,-1.76 -2.65,-2.1l0 -1.04c0,-0.69 -0.56,-1.26 -1.26,-1.26 -0.69,0 -1.26,0.56 -1.26,1.26l0 1.01c-0.02,0.01 -0.04,0.01 -0.06,0.02 -1.29,0.42 -2.25,1.55 -2.38,2.82 -0.28,2.6 2.08,3.26 3.49,3.65 1.61,0.45 1.85,0.65 1.84,1.11 -0,0.15 -0.11,0.34 -0.27,0.47 -0.2,0.17 -0.5,0.28 -0.85,0.32 -0.89,0.11 -1.84,-0.28 -2.42,-1.01 -0.43,-0.54 -1.22,-0.63 -1.77,-0.2 -0.55,0.43 -0.63,1.22 -0.2,1.77 0.68,0.85 1.6,1.46 2.62,1.76z"/>
    </g>
    <g>
     <path class="fil1" d="M52.69 9.05c-0.24,-0.25 -0.57,-0.39 -0.91,-0.39l-4.44 0c-0.05,-2.2 -0.9,-4.28 -2.43,-5.89 -1.69,-1.78 -3.98,-2.77 -6.44,-2.77l-29.6 0c-2.46,0 -4.75,0.98 -6.44,2.77 -1.69,1.78 -2.56,4.12 -2.43,6.57l2.61 49.54c0.17,3.13 2.75,5.59 5.89,5.59l30.32 0c3.14,0 5.73,-2.46 5.89,-5.59l0.34 -6.41 4.52 0c0.67,0 1.22,-0.52 1.25,-1.19l2.2 -41.3c0.02,-0.34 -0.1,-0.68 -0.34,-0.93zm-7.86 0.16l-2.61 49.54c-0.09,1.8 -1.58,3.21 -3.38,3.21l-30.32 0c-1.8,0 -3.29,-1.41 -3.38,-3.21l-2.61 -49.54c-0.09,-1.76 0.52,-3.43 1.74,-4.71 1.21,-1.28 2.85,-1.98 4.62,-1.98l29.6 0c1.76,0 3.4,0.7 4.61,1.98 1.21,1.28 1.83,2.95 1.74,4.71zm3.56 40.76l-3.19 0 2.04 -38.79 3.22 0 -2.07 38.79z"/>
     <path class="fil1" d="M34.49 6.28l-21.63 0c-1.82,0 -3.29,1.48 -3.29,3.29l0 16.39c0,1.82 1.48,3.29 3.29,3.29l21.63 0c1.82,0 3.29,-1.48 3.29,-3.29l0 -16.39c0,-1.82 -1.48,-3.29 -3.29,-3.29zm0.78 19.68c0,0.43 -0.35,0.78 -0.78,0.78l-21.63 0c-0.43,0 -0.78,-0.35 -0.78,-0.78l0 -16.39c0,-0.43 0.35,-0.78 0.78,-0.78l21.63 0c0.43,0 0.78,0.35 0.78,0.78l0 16.39z"/>
     <path class="fil1" d="M19.84 32.85l-9.02 0c-0.69,0 -1.26,0.56 -1.26,1.26l0 7.01c0,0.69 0.56,1.26 1.26,1.26l9.02 0c0.69,0 1.26,-0.56 1.26,-1.26l0 -7.01c0,-0.69 -0.56,-1.26 -1.26,-1.26zm-1.26 7.01l-6.51 0 0 -4.49 6.51 0 0 4.49z"/>
     <path class="fil1" d="M36.52 32.85l-9.02 0c-0.69,0 -1.26,0.56 -1.26,1.26l0 7.01c0,0.69 0.56,1.26 1.26,1.26l9.02 0c0.69,0 1.26,-0.56 1.26,-1.26l0 -7.01c0,-0.69 -0.56,-1.26 -1.26,-1.26zm-1.26 7.01l-6.51 0 0 -4.49 6.51 0 0 4.49z"/>
     <path class="fil1" d="M19.84 46.21l-9.02 0c-0.69,0 -1.26,0.56 -1.26,1.26l0 7.01c0,0.69 0.56,1.26 1.26,1.26l9.02 0c0.69,0 1.26,-0.56 1.26,-1.26l0 -7.01c0,-0.69 -0.56,-1.26 -1.26,-1.26zm-1.26 7.01l-6.51 0 0 -4.49 6.51 0 0 4.49z"/>
    </g>
   </g>
  </g>
 </g>
</svg>
