<?xml version="1.0" encoding="UTF-8"?>
<!DOCTYPE svg PUBLIC "-//W3C//DTD SVG 1.1//EN" "http://www.w3.org/Graphics/SVG/1.1/DTD/svg11.dtd">
<!-- Creator: CorelDRAW 2021 (64-Bit) -->
<svg xmlns="http://www.w3.org/2000/svg" xml:space="preserve" width="6.0861mm" height="6.1745mm" version="1.1" style="shape-rendering:geometricPrecision; text-rendering:geometricPrecision; image-rendering:optimizeQuality; fill-rule:evenodd; clip-rule:evenodd"
viewBox="0 0 41.69 42.3"
 xmlns:xlink="http://www.w3.org/1999/xlink"
 xmlns:xodm="http://www.corel.com/coreldraw/odm/2003">
 <defs>
  <style type="text/css">
   <![CDATA[
    .fil1 {fill:#034460;fill-rule:nonzero}
    .fil0 {fill:#FEC201;fill-rule:nonzero}
   ]]>
  </style>
 </defs>
 <g id="Layer_x0020_1">
  <metadata id="CorelCorpID_0Corel-Layer"/>
  <g id="_1644073965616">
   <path class="fil0" d="M9.72 11.36c-0.39,0 -0.71,-0.32 -0.71,-0.71l0 -8.3 -1.76 -1.04c-0.33,-0.2 -0.45,-0.64 -0.25,-0.97 0.2,-0.33 0.64,-0.45 0.97,-0.25l2.11 1.24c0.21,0.13 0.34,0.35 0.34,0.61l0 8.71c0,0.39 -0.32,0.7 -0.71,0.7z"/>
   <path class="fil0" d="M31.98 11.36c-0.39,0 -0.71,-0.32 -0.71,-0.71l0 -8.7c0,-0.25 0.13,-0.48 0.35,-0.61l2.11 -1.24c0.34,-0.2 0.77,-0.08 0.97,0.25 0.2,0.33 0.08,0.77 -0.25,0.97l-1.76 1.04 0 8.31c-0.01,0.39 -0.33,0.7 -0.72,0.7z"/>
   <path class="fil0" d="M23.68 8l-5.66 0c-0.39,0 -0.71,-0.32 -0.71,-0.71 0,-0.39 0.32,-0.71 0.71,-0.71l5.66 0c0.39,0 0.71,0.32 0.71,0.71 0,0.39 -0.31,0.71 -0.71,0.71z"/>
   <path class="fil1" d="M36.47 32.86l-9.1 0 0 -9.34c0,-0.39 -0.32,-0.71 -0.71,-0.71l-11.62 0c-0.39,0 -0.71,0.32 -0.71,0.71l0 9.34 -9.09 0c-0.39,0 -0.71,0.32 -0.71,0.71 0,0.39 0.32,0.71 0.71,0.71l9.81 0 11.62 0 9.81 0c0.39,0 0.71,-0.32 0.71,-0.71 0,-0.39 -0.33,-0.71 -0.72,-0.71zm-20.72 -8.63l10.21 0 0 1.93 -10.21 0 0 -1.93zm0 3.35l10.21 0 0 1.93 -10.21 0 0 -1.93zm0 5.28l0 -1.93 10.21 0 0 1.93 -10.21 0z"/>
   <path class="fil0" d="M36.47 34.27l-6.4 0c-0.39,0 -0.71,-0.32 -0.71,-0.71l0 -3.62c0,-0.39 0.32,-0.71 0.71,-0.71l6.4 0c0.39,0 0.71,0.32 0.71,0.71l0 3.62c0,0.39 -0.32,0.71 -0.71,0.71zm-5.69 -1.41l4.99 0 0 -2.2 -4.99 0 0 2.2z"/>
   <path class="fil0" d="M11.22 34.27l-5.98 0c-0.39,0 -0.71,-0.32 -0.71,-0.71l0 -3.62c0,-0.39 0.32,-0.71 0.71,-0.71l5.99 0c0.39,0 0.71,0.32 0.71,0.71l0 3.62c-0.01,0.39 -0.33,0.71 -0.72,0.71zm-5.27 -1.41l4.57 0 0 -2.2 -4.57 0 0 2.2z"/>
   <path class="fil1" d="M39.68 12.57l-0.14 0 0 -0.33c0,-1.28 -1.01,-2.29 -2.32,-2.29l-4.6 0 -0.45 -4.13c-0.13,-1.23 -1.16,-2.15 -2.39,-2.15l-17.85 0c-1.24,-0.01 -2.26,0.91 -2.39,2.13l-0.45 4.13 -4.61 0c-1.3,0 -2.32,1 -2.32,2.29l0 0.33 -0.14 0c-1.11,0 -2.02,0.91 -2.02,2.02l0 5.08c0,1.11 0.91,2.02 2.02,2.02l1.73 0c1.11,0 2.02,-0.91 2.02,-2.02l0 -5.08c0,-1.11 -0.91,-2.02 -2.02,-2.02l-0.18 0 0 -0.33c0,-0.51 0.38,-0.87 0.91,-0.87l4.54 0 0 8.86c0,0.01 0,0.03 0,0.05l0 4.01 -0.24 0c-2.35,0 -4.24,1.91 -4.24,4.24l0 8.69c0,0.39 0.32,0.71 0.71,0.71l1.12 0 0 1.21c0,1.76 1.43,3.17 3.17,3.17l0.48 0c1.74,0 3.17,-1.43 3.17,-3.17l0 -1.21 15.34 0 0 1.21c0,1.76 1.43,3.17 3.17,3.17l0.48 0c1.76,0 3.17,-1.43 3.17,-3.17l0 -1.21 1.12 0c0.39,0 0.71,-0.32 0.71,-0.71l0 -8.69c0,-2.35 -1.81,-4.24 -4.05,-4.24l-0.44 0 0 -4c0,-0.01 0,-0.04 0,-0.05l0 -8.88 4.53 0c0.53,0 0.91,0.37 0.91,0.87l0 0.33 -0.18 0c-1.11,0 -2.02,0.91 -2.02,2.02l0 5.08c0,1.11 0.91,2.02 2.02,2.02l1.73 0c1.11,0 2.02,-0.91 2.02,-2.02l0 -5.08c0,-1.11 -0.91,-2 -2.02,-2zm-35.93 1.41c0.33,0 0.6,0.27 0.6,0.6l0 5.08c0,0.33 -0.27,0.6 -0.6,0.6l-1.73 0c-0.33,0 -0.6,-0.27 -0.6,-0.6l0 -5.08c0,-0.33 0.27,-0.6 0.6,-0.6l1.73 0zm7.19 -8.02c0.06,-0.51 0.47,-0.88 0.98,-0.88l17.87 0c0.51,0 0.93,0.38 0.98,0.88l0.42 3.98 -20.68 0 0.42 -3.98zm-0.51 5.39l20.84 0 0 8.2 -20.84 0 0 -8.2zm1.34 27.77c0,0.97 -0.79,1.76 -1.76,1.76l-0.48 0c-0.97,0 -1.76,-0.79 -1.76,-1.76l0 -1.21 4 0 0 1.21zm22.16 0c0,0.97 -0.79,1.76 -1.76,1.76l-0.48 0c-0.97,0 -1.76,-0.79 -1.76,-1.76l0 -1.21 4.01 0 0 1.21 -0.01 0zm-0.81 -13.44c1.46,0 2.64,1.27 2.64,2.83l0 7.98 -1.12 0 -5.42 0 -16.74 0 -5.42 0 -1.12 0 0 -7.98c0,-1.57 1.27,-2.83 2.83,-2.83l0.94 0c0.39,0 0.71,-0.32 0.71,-0.71l0 -4 20.85 0 0 4c0,0.39 0.32,0.71 0.71,0.71l1.14 0zm7.16 -6.02c0,0.33 -0.27,0.6 -0.6,0.6l-1.73 0c-0.33,0 -0.6,-0.27 -0.6,-0.6l0 -5.08c0,-0.33 0.27,-0.6 0.6,-0.6l1.73 0c0.33,0 0.6,0.27 0.6,0.6l0 5.08z"/>
  </g>
 </g>
</svg>
