<?xml version="1.0" encoding="UTF-8"?>
<!DOCTYPE svg PUBLIC "-//W3C//DTD SVG 1.1//EN" "http://www.w3.org/Graphics/SVG/1.1/DTD/svg11.dtd">
<!-- Creator: CorelDRAW 2021 (64-Bit) -->
<svg xmlns="http://www.w3.org/2000/svg" xml:space="preserve" width="6.0178mm" height="6.0256mm" version="1.1" style="shape-rendering:geometricPrecision; text-rendering:geometricPrecision; image-rendering:optimizeQuality; fill-rule:evenodd; clip-rule:evenodd"
viewBox="0 0 51.85 51.92"
 xmlns:xlink="http://www.w3.org/1999/xlink"
 xmlns:xodm="http://www.corel.com/coreldraw/odm/2003">
 <defs>
  <style type="text/css">
   <![CDATA[
    .fil2 {fill:none;fill-rule:nonzero}
    .fil0 {fill:#08A88A;fill-rule:nonzero}
    .fil1 {fill:#121331;fill-rule:nonzero}
   ]]>
  </style>
 </defs>
 <g id="Layer_x0020_1">
  <metadata id="CorelCorpID_0Corel-Layer"/>
  <g id="_1643970882704">
   <g>
    <path class="fil0" d="M46.32 15.95c-0.27,0 -0.52,-0.13 -0.67,-0.36l-0.06 -0.08c-2.31,-3.44 -4.94,-7.34 -4.77,-10.3 0.16,-2.84 2.5,-5.13 5.34,-5.22 1.51,-0.05 2.94,0.51 4.02,1.56 1.08,1.05 1.68,2.46 1.67,3.97 -0,2.83 -2.44,6.46 -4.8,9.98l-0.06 0.09c-0.15,0.22 -0.4,0.36 -0.67,0.36 0,0 0,0 0,0zm0.01 -14.34c-0.04,0 -0.08,0 -0.12,0 -2.01,0.06 -3.67,1.69 -3.78,3.7 -0.12,2.19 1.89,5.4 3.89,8.39 1.95,-2.92 3.92,-6.06 3.92,-8.18l0 0c0,-1.07 -0.42,-2.07 -1.19,-2.81 -0.73,-0.71 -1.7,-1.1 -2.72,-1.1z"/>
    <path class="fil0" d="M46.34 8.07c-1.48,0 -2.69,-1.2 -2.69,-2.69 0,-1.48 1.2,-2.69 2.69,-2.69 1.48,0 2.68,1.2 2.68,2.69 0,1.48 -1.2,2.69 -2.68,2.69zm0 -3.76c-0.59,0 -1.07,0.48 -1.07,1.07 0,0.59 0.48,1.07 1.07,1.07 0.59,0 1.07,-0.48 1.07,-1.07 0,-0.59 -0.48,-1.07 -1.07,-1.07z"/>
   </g>
   <g>
    <path class="fil1" d="M5.5 51.92c-0.27,0 -0.52,-0.13 -0.67,-0.36l-0.06 -0.08c-2.31,-3.44 -4.94,-7.34 -4.77,-10.29 0.16,-2.84 2.5,-5.13 5.34,-5.22 1.51,-0.05 2.94,0.51 4.02,1.56 1.08,1.05 1.68,2.46 1.67,3.97 -0,2.82 -2.45,6.46 -4.8,9.98l-0.06 0.09c-0.15,0.22 -0.4,0.36 -0.67,0.36 0,0 0,0 0,0zm0.01 -14.34c-0.04,0 -0.08,0 -0.12,0 -2.01,0.06 -3.67,1.68 -3.78,3.7 -0.12,2.19 1.89,5.4 3.89,8.39 1.95,-2.92 3.92,-6.06 3.92,-8.18l0 0c0,-1.07 -0.42,-2.07 -1.19,-2.81 -0.73,-0.71 -1.7,-1.1 -2.72,-1.1z"/>
    <path class="fil1" d="M5.52 44.04c-1.48,0 -2.69,-1.2 -2.69,-2.69 0,-1.48 1.2,-2.69 2.69,-2.69 1.48,0 2.69,1.2 2.69,2.69 0,1.48 -1.2,2.69 -2.69,2.69zm0 -3.76c-0.59,0 -1.07,0.48 -1.07,1.07 0,0.59 0.48,1.07 1.07,1.07 0.59,0 1.07,-0.48 1.07,-1.07 0,-0.59 -0.48,-1.07 -1.07,-1.07z"/>
   </g>
   <g>
    <line class="fil2" x1="17.85" y1="8.12" x2="17.85" y2= "8.12" />
    <path class="fil1" d="M17.85 9.06c-0.25,0 -0.49,-0.1 -0.66,-0.28 -0.04,-0.04 -0.08,-0.09 -0.12,-0.14 -0.03,-0.05 -0.06,-0.11 -0.09,-0.16 -0.02,-0.06 -0.04,-0.12 -0.05,-0.18 -0.01,-0.06 -0.02,-0.12 -0.02,-0.18 0,-0.25 0.1,-0.49 0.27,-0.66 0.18,-0.18 0.42,-0.28 0.66,-0.28 0.25,0 0.49,0.1 0.67,0.28 0.18,0.17 0.27,0.42 0.27,0.66 0,0.25 -0.1,0.49 -0.27,0.66 -0.17,0.18 -0.42,0.28 -0.67,0.28z"/>
   </g>
   <g>
    <line class="fil2" x1="21.9" y1="8.12" x2="21.9" y2= "8.12" />
    <path class="fil1" d="M21.9 9.06c-0.25,0 -0.49,-0.1 -0.67,-0.28 -0.04,-0.04 -0.08,-0.09 -0.12,-0.14 -0.03,-0.05 -0.06,-0.11 -0.09,-0.16 -0.02,-0.06 -0.04,-0.12 -0.05,-0.18 -0.01,-0.06 -0.02,-0.12 -0.02,-0.18 0,-0.25 0.1,-0.49 0.27,-0.66 0.18,-0.18 0.42,-0.28 0.67,-0.28 0.25,0 0.49,0.1 0.66,0.28 0.18,0.17 0.28,0.42 0.28,0.66 0,0.25 -0.1,0.49 -0.28,0.66 -0.17,0.18 -0.42,0.28 -0.66,0.28z"/>
   </g>
   <g>
    <line class="fil2" x1="25.95" y1="8.12" x2="25.95" y2= "8.12" />
    <path class="fil1" d="M25.95 9.06c-0.25,0 -0.49,-0.1 -0.67,-0.28 -0.04,-0.04 -0.08,-0.09 -0.12,-0.14 -0.03,-0.05 -0.06,-0.11 -0.09,-0.16 -0.02,-0.06 -0.04,-0.12 -0.05,-0.18 -0.01,-0.06 -0.02,-0.12 -0.02,-0.18 0,-0.25 0.1,-0.49 0.27,-0.66 0.18,-0.18 0.42,-0.28 0.67,-0.28 0.25,0 0.49,0.1 0.66,0.28 0.18,0.17 0.28,0.42 0.28,0.66 0,0.25 -0.1,0.49 -0.28,0.66 -0.17,0.18 -0.42,0.28 -0.66,0.28z"/>
   </g>
   <g>
    <line class="fil2" x1="30" y1="8.12" x2="30" y2= "8.12" />
    <path class="fil1" d="M30 9.06c-0.25,0 -0.49,-0.1 -0.66,-0.28 -0.04,-0.04 -0.08,-0.09 -0.12,-0.14 -0.03,-0.05 -0.06,-0.11 -0.09,-0.16 -0.02,-0.06 -0.04,-0.12 -0.05,-0.18 -0.01,-0.06 -0.02,-0.12 -0.02,-0.18 0,-0.25 0.1,-0.49 0.28,-0.66 0.18,-0.18 0.42,-0.28 0.66,-0.28 0.25,0 0.49,0.1 0.67,0.28 0.18,0.17 0.27,0.42 0.27,0.66 0,0.25 -0.1,0.49 -0.27,0.66 -0.17,0.18 -0.42,0.28 -0.67,0.28z"/>
   </g>
   <g>
    <line class="fil2" x1="34.05" y1="8.12" x2="34.05" y2= "8.12" />
    <path class="fil1" d="M34.05 9.06c-0.25,0 -0.49,-0.1 -0.67,-0.28 -0.04,-0.04 -0.08,-0.09 -0.12,-0.14 -0.03,-0.05 -0.06,-0.11 -0.09,-0.16 -0.02,-0.06 -0.04,-0.12 -0.05,-0.18 -0.01,-0.06 -0.02,-0.12 -0.02,-0.18 0,-0.25 0.1,-0.49 0.27,-0.66 0.18,-0.18 0.42,-0.28 0.67,-0.28 0.25,0 0.49,0.1 0.66,0.28 0.18,0.17 0.28,0.42 0.28,0.66 0,0.25 -0.1,0.49 -0.28,0.66 -0.17,0.18 -0.42,0.28 -0.66,0.28z"/>
   </g>
   <g>
    <line class="fil2" x1="38.1" y1="8.12" x2="38.1" y2= "8.12" />
    <path class="fil1" d="M38.1 9.06c-0.25,0 -0.49,-0.1 -0.67,-0.28 -0.04,-0.04 -0.08,-0.09 -0.12,-0.14 -0.03,-0.05 -0.06,-0.11 -0.09,-0.16 -0.02,-0.06 -0.04,-0.12 -0.05,-0.18 -0.01,-0.06 -0.02,-0.12 -0.02,-0.18 0,-0.25 0.1,-0.49 0.27,-0.66 0.18,-0.18 0.42,-0.28 0.67,-0.28 0.25,0 0.49,0.1 0.66,0.28 0.18,0.17 0.28,0.42 0.28,0.66 0,0.25 -0.1,0.49 -0.28,0.66 -0.17,0.18 -0.42,0.28 -0.66,0.28z"/>
   </g>
   <g>
    <line class="fil2" x1="38.1" y1="26.03" x2="38.1" y2= "26.03" />
    <path class="fil1" d="M38.1 26.97c-0.25,0 -0.49,-0.1 -0.67,-0.28 -0.17,-0.18 -0.27,-0.42 -0.27,-0.66 0,-0.25 0.1,-0.49 0.27,-0.67 0.22,-0.22 0.54,-0.32 0.85,-0.26 0.06,0.01 0.12,0.03 0.18,0.05 0.06,0.02 0.11,0.05 0.16,0.09 0.05,0.03 0.1,0.07 0.14,0.12 0.17,0.17 0.27,0.42 0.27,0.67 0,0.25 -0.1,0.49 -0.27,0.66 -0.04,0.04 -0.09,0.08 -0.14,0.12 -0.05,0.03 -0.1,0.06 -0.16,0.09 -0.06,0.02 -0.12,0.04 -0.18,0.05 -0.06,0.01 -0.12,0.02 -0.18,0.02z"/>
   </g>
   <g>
    <polygon class="fil1" points="34.05,26.03 34.05,26.03 34.05,26.03 "/>
   </g>
   <g id="_1643970834992">
    <line class="fil2" x1="30" y1="26.03" x2="30" y2= "26.03" />
    <path class="fil1" d="M30 26.97c-0.06,0 -0.12,-0.01 -0.18,-0.02 -0.06,-0.01 -0.12,-0.03 -0.18,-0.05 -0.06,-0.02 -0.11,-0.05 -0.16,-0.09 -0.05,-0.04 -0.1,-0.07 -0.14,-0.12 -0.17,-0.18 -0.28,-0.42 -0.28,-0.66 0,-0.06 0.01,-0.12 0.02,-0.18 0.01,-0.06 0.03,-0.12 0.05,-0.18 0.02,-0.06 0.05,-0.11 0.09,-0.16 0.03,-0.05 0.07,-0.1 0.12,-0.14 0.04,-0.04 0.09,-0.08 0.14,-0.12 0.05,-0.03 0.11,-0.06 0.16,-0.09 0.06,-0.02 0.12,-0.04 0.18,-0.05 0.3,-0.06 0.63,0.04 0.85,0.26 0.04,0.04 0.08,0.09 0.12,0.14 0.03,0.05 0.06,0.11 0.09,0.16 0.02,0.06 0.04,0.12 0.05,0.18 0.01,0.06 0.02,0.12 0.02,0.18 0,0.06 -0.01,0.12 -0.02,0.18 -0.01,0.06 -0.03,0.12 -0.05,0.17 -0.02,0.06 -0.05,0.11 -0.09,0.16 -0.03,0.05 -0.07,0.1 -0.12,0.14 -0.18,0.17 -0.42,0.28 -0.67,0.28z"/>
   </g>
   <g id="_1643970903152">
    <line class="fil2" x1="25.95" y1="26.03" x2="25.95" y2= "26.03" />
    <path class="fil1" d="M25.95 26.97c-0.25,0 -0.49,-0.1 -0.67,-0.28 -0.04,-0.04 -0.08,-0.09 -0.12,-0.14 -0.03,-0.05 -0.06,-0.1 -0.09,-0.16 -0.02,-0.06 -0.04,-0.12 -0.05,-0.18 -0.01,-0.06 -0.02,-0.12 -0.02,-0.18 0,-0.06 0.01,-0.12 0.02,-0.18 0.01,-0.06 0.03,-0.12 0.05,-0.18 0.02,-0.06 0.05,-0.11 0.09,-0.16 0.03,-0.05 0.07,-0.1 0.12,-0.14 0.22,-0.22 0.54,-0.32 0.85,-0.26 0.06,0.01 0.12,0.03 0.18,0.05 0.06,0.02 0.11,0.05 0.16,0.09 0.05,0.03 0.1,0.07 0.14,0.12 0.04,0.04 0.08,0.09 0.12,0.14 0.03,0.05 0.06,0.11 0.09,0.16 0.02,0.06 0.04,0.12 0.05,0.18 0.01,0.06 0.02,0.12 0.02,0.18 0,0.06 -0.01,0.12 -0.02,0.18 -0.01,0.06 -0.03,0.12 -0.05,0.18 -0.02,0.06 -0.05,0.11 -0.09,0.16 -0.03,0.05 -0.07,0.1 -0.12,0.14 -0.17,0.17 -0.42,0.28 -0.66,0.28z"/>
   </g>
   <g id="_1643970891344">
    <line class="fil2" x1="21.9" y1="26.03" x2="21.9" y2= "26.03" />
    <path class="fil1" d="M21.9 26.97c-0.06,0 -0.12,-0.01 -0.18,-0.02 -0.06,-0.01 -0.12,-0.03 -0.18,-0.05 -0.06,-0.02 -0.11,-0.05 -0.16,-0.09 -0.05,-0.04 -0.1,-0.07 -0.14,-0.12 -0.18,-0.18 -0.27,-0.42 -0.27,-0.66 0,-0.06 0.01,-0.12 0.02,-0.18 0.01,-0.06 0.03,-0.12 0.05,-0.18 0.02,-0.06 0.05,-0.11 0.09,-0.16 0.03,-0.05 0.07,-0.1 0.12,-0.14 0.22,-0.22 0.54,-0.32 0.85,-0.26 0.06,0.01 0.12,0.03 0.18,0.05 0.06,0.02 0.11,0.05 0.16,0.09 0.05,0.03 0.1,0.07 0.14,0.12 0.04,0.04 0.08,0.09 0.12,0.14 0.03,0.05 0.06,0.11 0.09,0.16 0.02,0.06 0.04,0.12 0.05,0.18 0.01,0.06 0.02,0.12 0.02,0.18 0,0.06 -0.01,0.12 -0.02,0.18 -0.01,0.06 -0.03,0.12 -0.05,0.18 -0.02,0.06 -0.05,0.11 -0.09,0.16 -0.04,0.05 -0.07,0.1 -0.12,0.14 -0.04,0.04 -0.09,0.08 -0.14,0.12 -0.05,0.03 -0.1,0.06 -0.16,0.09 -0.06,0.02 -0.12,0.04 -0.18,0.05 -0.06,0.01 -0.12,0.02 -0.18,0.02z"/>
   </g>
   <g id="_1643970891536">
    <line class="fil2" x1="17.85" y1="26.03" x2="17.85" y2= "26.03" />
    <path class="fil1" d="M17.85 26.97c-0.06,0 -0.12,-0.01 -0.18,-0.02 -0.06,-0.01 -0.12,-0.03 -0.18,-0.05 -0.06,-0.02 -0.11,-0.05 -0.16,-0.09 -0.05,-0.04 -0.1,-0.07 -0.14,-0.12 -0.04,-0.04 -0.08,-0.09 -0.12,-0.14 -0.03,-0.05 -0.06,-0.1 -0.09,-0.16 -0.02,-0.06 -0.04,-0.12 -0.05,-0.18 -0.01,-0.06 -0.02,-0.12 -0.02,-0.18 0,-0.06 0.01,-0.12 0.02,-0.18 0.01,-0.06 0.03,-0.12 0.05,-0.18 0.02,-0.06 0.05,-0.11 0.09,-0.16 0.04,-0.05 0.07,-0.1 0.12,-0.14 0.04,-0.04 0.09,-0.08 0.14,-0.12 0.05,-0.04 0.1,-0.06 0.16,-0.09 0.06,-0.02 0.12,-0.04 0.18,-0.05 0.12,-0.02 0.25,-0.02 0.37,0 0.06,0.01 0.12,0.03 0.18,0.05 0.06,0.02 0.11,0.05 0.16,0.09 0.05,0.03 0.1,0.07 0.14,0.12 0.04,0.04 0.08,0.09 0.12,0.14 0.04,0.05 0.06,0.11 0.09,0.16 0.02,0.06 0.04,0.12 0.05,0.18 0.01,0.06 0.02,0.12 0.02,0.18 0,0.06 -0.01,0.12 -0.02,0.18 -0.01,0.06 -0.03,0.12 -0.05,0.18 -0.02,0.06 -0.05,0.11 -0.09,0.16 -0.03,0.05 -0.07,0.1 -0.12,0.14 -0.17,0.17 -0.42,0.28 -0.67,0.28z"/>
   </g>
   <g id="_1643970890768">
    <line class="fil2" x1="13.8" y1="8.12" x2="13.8" y2= "8.12" />
    <path class="fil1" d="M13.8 9.06c-0.06,0 -0.12,-0.01 -0.18,-0.02 -0.06,-0.01 -0.12,-0.03 -0.18,-0.05 -0.06,-0.02 -0.11,-0.05 -0.16,-0.09 -0.05,-0.03 -0.1,-0.07 -0.14,-0.12 -0.04,-0.04 -0.08,-0.09 -0.12,-0.14 -0.03,-0.05 -0.06,-0.11 -0.09,-0.16 -0.02,-0.06 -0.04,-0.12 -0.05,-0.18 -0.01,-0.06 -0.02,-0.12 -0.02,-0.18 0,-0.06 0.01,-0.12 0.02,-0.18 0.01,-0.06 0.03,-0.12 0.05,-0.18 0.02,-0.06 0.05,-0.11 0.09,-0.16 0.03,-0.05 0.07,-0.1 0.12,-0.14 0.04,-0.04 0.09,-0.08 0.14,-0.12 0.05,-0.03 0.11,-0.06 0.16,-0.09 0.06,-0.02 0.12,-0.04 0.18,-0.05 0.12,-0.02 0.25,-0.02 0.37,0 0.06,0.01 0.12,0.03 0.18,0.05 0.06,0.02 0.11,0.05 0.16,0.09 0.05,0.03 0.1,0.07 0.14,0.12 0.04,0.04 0.08,0.09 0.12,0.14 0.03,0.05 0.06,0.11 0.09,0.16 0.02,0.06 0.04,0.12 0.05,0.18 0.01,0.06 0.02,0.12 0.02,0.18 0,0.06 -0.01,0.12 -0.02,0.18 -0.01,0.06 -0.03,0.12 -0.05,0.18 -0.02,0.06 -0.05,0.11 -0.09,0.16 -0.03,0.05 -0.07,0.1 -0.12,0.14 -0.04,0.04 -0.09,0.08 -0.14,0.12 -0.05,0.03 -0.1,0.06 -0.16,0.09 -0.06,0.02 -0.12,0.04 -0.18,0.05 -0.06,0.01 -0.12,0.02 -0.18,0.02z"/>
   </g>
   <g id="_1643970890672">
    <line class="fil2" x1="13.8" y1="26.03" x2="13.8" y2= "26.03" />
    <path class="fil1" d="M13.8 26.97c-0.25,0 -0.49,-0.1 -0.66,-0.28 -0.04,-0.04 -0.08,-0.09 -0.12,-0.14 -0.03,-0.05 -0.06,-0.1 -0.09,-0.16 -0.02,-0.06 -0.04,-0.12 -0.05,-0.18 -0.01,-0.06 -0.02,-0.12 -0.02,-0.18 0,-0.06 0.01,-0.12 0.02,-0.18 0.01,-0.06 0.03,-0.12 0.05,-0.18 0.02,-0.06 0.05,-0.11 0.09,-0.16 0.03,-0.05 0.07,-0.1 0.12,-0.14 0.22,-0.22 0.54,-0.32 0.85,-0.26 0.06,0.01 0.12,0.03 0.17,0.05 0.06,0.02 0.11,0.05 0.16,0.09 0.05,0.03 0.1,0.07 0.14,0.12 0.04,0.04 0.08,0.09 0.12,0.14 0.03,0.05 0.06,0.11 0.09,0.16 0.02,0.06 0.04,0.12 0.05,0.18 0.01,0.06 0.02,0.12 0.02,0.18 0,0.06 -0.01,0.12 -0.02,0.18 -0.01,0.06 -0.03,0.12 -0.05,0.18 -0.02,0.06 -0.05,0.11 -0.09,0.16 -0.03,0.05 -0.07,0.1 -0.12,0.14 -0.04,0.04 -0.09,0.08 -0.14,0.12 -0.05,0.03 -0.1,0.06 -0.16,0.09 -0.06,0.02 -0.12,0.04 -0.17,0.05 -0.06,0.01 -0.12,0.02 -0.18,0.02z"/>
   </g>
   <g id="_1643970887552">
    <line class="fil2" x1="34.05" y1="43.95" x2="34.05" y2= "43.95" />
    <path class="fil1" d="M34.05 44.89c-0.06,0 -0.12,-0.01 -0.18,-0.02 -0.06,-0.01 -0.12,-0.03 -0.17,-0.05 -0.06,-0.02 -0.11,-0.05 -0.16,-0.09 -0.05,-0.03 -0.1,-0.07 -0.14,-0.12 -0.04,-0.04 -0.08,-0.09 -0.12,-0.14 -0.03,-0.05 -0.06,-0.11 -0.09,-0.16 -0.02,-0.06 -0.04,-0.12 -0.05,-0.18 -0.01,-0.06 -0.02,-0.12 -0.02,-0.18 0,-0.06 0.01,-0.12 0.02,-0.18 0.01,-0.06 0.03,-0.12 0.05,-0.18 0.02,-0.06 0.05,-0.11 0.09,-0.16 0.04,-0.05 0.07,-0.1 0.12,-0.14 0.04,-0.04 0.09,-0.08 0.14,-0.12 0.05,-0.03 0.11,-0.06 0.16,-0.09 0.06,-0.02 0.12,-0.04 0.17,-0.05 0.12,-0.02 0.25,-0.02 0.37,0 0.06,0.01 0.12,0.03 0.18,0.05 0.06,0.02 0.11,0.05 0.16,0.09 0.05,0.03 0.1,0.07 0.14,0.12 0.04,0.04 0.08,0.09 0.12,0.14 0.04,0.05 0.06,0.11 0.09,0.16 0.02,0.06 0.04,0.12 0.05,0.18 0.01,0.06 0.02,0.12 0.02,0.18 0,0.06 -0.01,0.12 -0.02,0.18 -0.01,0.06 -0.03,0.12 -0.05,0.18 -0.02,0.06 -0.05,0.11 -0.09,0.16 -0.03,0.05 -0.07,0.1 -0.12,0.14 -0.04,0.04 -0.09,0.08 -0.14,0.12 -0.05,0.03 -0.11,0.06 -0.16,0.09 -0.06,0.02 -0.12,0.04 -0.18,0.05 -0.06,0.01 -0.12,0.02 -0.18,0.02z"/>
   </g>
   <g id="_1643970887024">
    <line class="fil2" x1="30" y1="43.95" x2="30" y2= "43.95" />
    <path class="fil1" d="M30 44.89c-0.06,0 -0.12,-0.01 -0.18,-0.02 -0.06,-0.01 -0.12,-0.03 -0.18,-0.05 -0.06,-0.02 -0.11,-0.05 -0.16,-0.09 -0.05,-0.03 -0.1,-0.07 -0.14,-0.12 -0.04,-0.04 -0.08,-0.09 -0.12,-0.14 -0.03,-0.05 -0.06,-0.11 -0.09,-0.16 -0.02,-0.06 -0.04,-0.12 -0.05,-0.18 -0.01,-0.06 -0.02,-0.12 -0.02,-0.18 0,-0.06 0.01,-0.12 0.02,-0.18 0.01,-0.06 0.03,-0.12 0.05,-0.18 0.02,-0.06 0.05,-0.11 0.09,-0.16 0.03,-0.05 0.07,-0.1 0.12,-0.14 0.04,-0.04 0.09,-0.08 0.14,-0.12 0.05,-0.03 0.11,-0.06 0.16,-0.09 0.06,-0.02 0.12,-0.04 0.18,-0.05 0.12,-0.02 0.25,-0.02 0.37,0 0.06,0.01 0.12,0.03 0.18,0.05 0.06,0.02 0.11,0.05 0.16,0.09 0.05,0.03 0.1,0.07 0.14,0.12 0.04,0.04 0.08,0.09 0.12,0.14 0.03,0.05 0.06,0.11 0.09,0.16 0.02,0.06 0.04,0.12 0.05,0.18 0.01,0.06 0.02,0.12 0.02,0.18 0,0.06 -0.01,0.12 -0.02,0.18 -0.01,0.06 -0.03,0.12 -0.05,0.18 -0.02,0.06 -0.05,0.11 -0.09,0.16 -0.03,0.05 -0.07,0.1 -0.12,0.14 -0.04,0.04 -0.09,0.08 -0.14,0.12 -0.05,0.03 -0.11,0.06 -0.16,0.09 -0.06,0.02 -0.12,0.04 -0.18,0.05 -0.06,0.01 -0.12,0.02 -0.18,0.02z"/>
   </g>
   <g id="_1643970888608">
    <line class="fil2" x1="25.95" y1="43.95" x2="25.95" y2= "43.95" />
    <path class="fil1" d="M25.95 44.89c-0.06,0 -0.12,-0.01 -0.18,-0.02 -0.06,-0.01 -0.12,-0.03 -0.18,-0.05 -0.06,-0.02 -0.11,-0.05 -0.16,-0.09 -0.05,-0.03 -0.1,-0.07 -0.14,-0.12 -0.04,-0.04 -0.08,-0.09 -0.12,-0.14 -0.03,-0.05 -0.06,-0.11 -0.09,-0.16 -0.02,-0.06 -0.04,-0.12 -0.05,-0.18 -0.01,-0.06 -0.02,-0.12 -0.02,-0.18 0,-0.06 0.01,-0.12 0.02,-0.18 0.01,-0.06 0.03,-0.12 0.05,-0.18 0.02,-0.06 0.05,-0.11 0.09,-0.16 0.03,-0.05 0.07,-0.1 0.12,-0.14 0.04,-0.04 0.09,-0.08 0.14,-0.12 0.05,-0.03 0.11,-0.06 0.16,-0.09 0.06,-0.02 0.12,-0.04 0.18,-0.05 0.31,-0.06 0.63,0.04 0.85,0.26 0.04,0.04 0.08,0.09 0.12,0.14 0.03,0.05 0.06,0.11 0.09,0.16 0.02,0.06 0.04,0.12 0.05,0.18 0.01,0.06 0.02,0.12 0.02,0.18 0,0.06 -0.01,0.12 -0.02,0.18 -0.01,0.06 -0.03,0.12 -0.05,0.18 -0.02,0.06 -0.05,0.11 -0.09,0.16 -0.03,0.05 -0.07,0.1 -0.12,0.14 -0.17,0.17 -0.42,0.28 -0.66,0.28z"/>
   </g>
   <g id="_1643970888896">
    <line class="fil2" x1="21.9" y1="43.95" x2="21.9" y2= "43.95" />
    <path class="fil1" d="M21.9 44.89c-0.06,0 -0.12,-0.01 -0.18,-0.02 -0.06,-0.01 -0.12,-0.03 -0.18,-0.05 -0.06,-0.02 -0.11,-0.05 -0.16,-0.09 -0.05,-0.03 -0.1,-0.07 -0.14,-0.12 -0.04,-0.04 -0.08,-0.09 -0.12,-0.14 -0.03,-0.05 -0.06,-0.11 -0.09,-0.16 -0.02,-0.06 -0.04,-0.12 -0.05,-0.18 -0.01,-0.06 -0.02,-0.12 -0.02,-0.18 0,-0.06 0.01,-0.12 0.02,-0.18 0.01,-0.06 0.03,-0.12 0.05,-0.18 0.02,-0.06 0.05,-0.11 0.09,-0.16 0.03,-0.05 0.07,-0.1 0.12,-0.14 0.04,-0.04 0.09,-0.08 0.14,-0.12 0.05,-0.03 0.11,-0.06 0.16,-0.09 0.06,-0.02 0.12,-0.04 0.18,-0.05 0.12,-0.02 0.25,-0.02 0.37,0 0.06,0.01 0.12,0.03 0.18,0.05 0.06,0.02 0.11,0.05 0.16,0.09 0.05,0.03 0.1,0.07 0.14,0.12 0.04,0.04 0.08,0.09 0.12,0.14 0.03,0.05 0.06,0.11 0.09,0.16 0.02,0.06 0.04,0.12 0.05,0.18 0.01,0.06 0.02,0.12 0.02,0.18 0,0.06 -0.01,0.12 -0.02,0.18 -0.01,0.06 -0.03,0.12 -0.05,0.18 -0.02,0.06 -0.05,0.11 -0.09,0.16 -0.04,0.05 -0.07,0.1 -0.12,0.14 -0.04,0.04 -0.09,0.08 -0.14,0.12 -0.05,0.03 -0.1,0.06 -0.16,0.09 -0.06,0.02 -0.12,0.04 -0.17,0.05 -0.06,0.01 -0.12,0.02 -0.18,0.02z"/>
   </g>
   <g id="_1643970885056">
    <line class="fil2" x1="17.85" y1="43.95" x2="17.85" y2= "43.95" />
    <path class="fil1" d="M17.85 44.89c-0.06,0 -0.12,-0.01 -0.18,-0.02 -0.06,-0.01 -0.12,-0.03 -0.18,-0.05 -0.06,-0.02 -0.11,-0.05 -0.16,-0.09 -0.05,-0.03 -0.1,-0.07 -0.14,-0.12 -0.04,-0.04 -0.08,-0.09 -0.12,-0.14 -0.03,-0.05 -0.06,-0.11 -0.09,-0.16 -0.02,-0.06 -0.04,-0.12 -0.05,-0.18 -0.01,-0.06 -0.02,-0.12 -0.02,-0.18 0,-0.06 0.01,-0.12 0.02,-0.18 0.01,-0.06 0.03,-0.12 0.05,-0.18 0.02,-0.06 0.05,-0.11 0.09,-0.16 0.04,-0.05 0.07,-0.1 0.12,-0.14 0.04,-0.04 0.09,-0.08 0.14,-0.12 0.05,-0.03 0.1,-0.06 0.16,-0.09 0.06,-0.02 0.12,-0.04 0.18,-0.05 0.12,-0.02 0.25,-0.02 0.37,0 0.06,0.01 0.12,0.03 0.18,0.05 0.06,0.02 0.11,0.05 0.16,0.09 0.05,0.03 0.1,0.07 0.14,0.12 0.04,0.04 0.08,0.09 0.12,0.14 0.03,0.05 0.06,0.11 0.09,0.16 0.02,0.06 0.04,0.12 0.05,0.18 0.01,0.06 0.02,0.12 0.02,0.18 0,0.06 -0.01,0.12 -0.02,0.18 -0.01,0.06 -0.03,0.12 -0.05,0.18 -0.02,0.06 -0.05,0.11 -0.09,0.16 -0.03,0.05 -0.07,0.1 -0.12,0.14 -0.04,0.04 -0.09,0.08 -0.14,0.12 -0.05,0.03 -0.11,0.06 -0.16,0.09 -0.06,0.02 -0.12,0.04 -0.18,0.05 -0.06,0.01 -0.12,0.02 -0.18,0.02z"/>
   </g>
   <g id="_1643970885008">
    <line class="fil2" x1="13.8" y1="43.95" x2="13.8" y2= "43.95" />
    <path class="fil1" d="M13.8 44.89c-0.06,0 -0.12,-0.01 -0.18,-0.02 -0.06,-0.01 -0.12,-0.03 -0.18,-0.05 -0.06,-0.02 -0.11,-0.05 -0.16,-0.09 -0.05,-0.03 -0.1,-0.07 -0.14,-0.12 -0.04,-0.04 -0.08,-0.09 -0.12,-0.14 -0.03,-0.05 -0.06,-0.11 -0.09,-0.16 -0.02,-0.06 -0.04,-0.12 -0.05,-0.18 -0.01,-0.06 -0.02,-0.12 -0.02,-0.18 0,-0.06 0.01,-0.12 0.02,-0.18 0.01,-0.06 0.03,-0.12 0.05,-0.18 0.02,-0.06 0.05,-0.11 0.09,-0.16 0.03,-0.05 0.07,-0.1 0.12,-0.14 0.04,-0.04 0.09,-0.08 0.14,-0.12 0.05,-0.03 0.11,-0.06 0.16,-0.09 0.06,-0.02 0.12,-0.04 0.18,-0.05 0.12,-0.02 0.25,-0.02 0.37,0 0.06,0.01 0.12,0.03 0.18,0.05 0.06,0.02 0.11,0.05 0.16,0.09 0.05,0.03 0.1,0.07 0.14,0.12 0.04,0.04 0.08,0.09 0.12,0.14 0.03,0.05 0.06,0.11 0.09,0.16 0.02,0.06 0.04,0.12 0.05,0.18 0.01,0.06 0.02,0.12 0.02,0.18 0,0.06 -0.01,0.12 -0.02,0.18 -0.01,0.06 -0.03,0.12 -0.05,0.18 -0.02,0.06 -0.05,0.11 -0.09,0.16 -0.03,0.05 -0.07,0.1 -0.12,0.14 -0.04,0.04 -0.09,0.08 -0.14,0.12 -0.05,0.03 -0.1,0.06 -0.16,0.09 -0.06,0.02 -0.12,0.04 -0.18,0.05 -0.06,0.01 -0.12,0.02 -0.18,0.02z"/>
   </g>
   <g>
    <polygon class="fil1" points="10.54,9.97 10.54,9.97 10.54,9.97 "/>
   </g>
   <g>
    <polygon class="fil1" points="10.54,24.18 10.54,24.18 10.54,24.18 "/>
   </g>
   <g>
    <line class="fil2" x1="8.74" y1="21.13" x2="8.74" y2= "21.13" />
    <path class="fil1" d="M8.74 22.07c-0.06,0 -0.12,-0.01 -0.18,-0.02 -0.06,-0.01 -0.12,-0.03 -0.18,-0.05 -0.06,-0.02 -0.11,-0.05 -0.16,-0.09 -0.05,-0.03 -0.1,-0.07 -0.14,-0.12 -0.04,-0.04 -0.08,-0.09 -0.12,-0.14 -0.03,-0.05 -0.06,-0.11 -0.09,-0.16 -0.02,-0.06 -0.04,-0.12 -0.05,-0.18 -0.01,-0.06 -0.02,-0.12 -0.02,-0.18 0,-0.06 0.01,-0.12 0.02,-0.18 0.01,-0.06 0.03,-0.12 0.05,-0.18 0.02,-0.06 0.05,-0.11 0.09,-0.16 0.03,-0.05 0.07,-0.1 0.12,-0.14 0.04,-0.04 0.09,-0.08 0.14,-0.12 0.05,-0.03 0.11,-0.06 0.16,-0.09 0.06,-0.02 0.12,-0.04 0.18,-0.05 0.12,-0.02 0.25,-0.02 0.37,0 0.06,0.01 0.12,0.03 0.18,0.05 0.06,0.02 0.11,0.05 0.16,0.09 0.05,0.03 0.1,0.07 0.14,0.12 0.04,0.04 0.08,0.09 0.12,0.14 0.03,0.05 0.06,0.11 0.09,0.16 0.02,0.06 0.04,0.12 0.05,0.18 0.01,0.06 0.02,0.12 0.02,0.18 0,0.06 -0.01,0.12 -0.02,0.18 -0.01,0.06 -0.03,0.12 -0.05,0.18 -0.02,0.06 -0.05,0.11 -0.09,0.16 -0.03,0.05 -0.07,0.1 -0.12,0.14 -0.04,0.04 -0.09,0.08 -0.14,0.12 -0.05,0.03 -0.11,0.06 -0.16,0.09 -0.06,0.02 -0.12,0.04 -0.18,0.05 -0.06,0.01 -0.12,0.02 -0.18,0.02z"/>
   </g>
   <g>
    <line class="fil2" x1="8.34" y1="17.07" x2="8.34" y2= "17.07" />
    <path class="fil1" d="M8.34 18.01c-0.06,0 -0.12,-0.01 -0.18,-0.02 -0.06,-0.01 -0.12,-0.03 -0.18,-0.05 -0.06,-0.02 -0.11,-0.05 -0.16,-0.09 -0.05,-0.03 -0.1,-0.07 -0.14,-0.12 -0.17,-0.17 -0.27,-0.42 -0.27,-0.66 0,-0.06 0.01,-0.12 0.02,-0.18 0.01,-0.06 0.03,-0.12 0.05,-0.18 0.02,-0.06 0.05,-0.11 0.09,-0.16 0.04,-0.05 0.07,-0.1 0.12,-0.14 0.04,-0.04 0.09,-0.08 0.14,-0.12 0.05,-0.03 0.1,-0.06 0.16,-0.09 0.06,-0.02 0.12,-0.04 0.18,-0.05 0.12,-0.02 0.25,-0.02 0.37,0 0.06,0.01 0.12,0.03 0.18,0.05 0.06,0.02 0.11,0.05 0.16,0.09 0.05,0.03 0.1,0.07 0.14,0.12 0.04,0.04 0.08,0.09 0.12,0.14 0.03,0.05 0.06,0.11 0.09,0.16 0.02,0.06 0.04,0.12 0.05,0.18 0.01,0.06 0.02,0.12 0.02,0.18 0,0.25 -0.1,0.49 -0.27,0.66 -0.04,0.04 -0.09,0.08 -0.14,0.12 -0.05,0.03 -0.11,0.06 -0.16,0.09 -0.06,0.02 -0.12,0.04 -0.18,0.05 -0.06,0.01 -0.12,0.02 -0.18,0.02z"/>
   </g>
   <g>
    <line class="fil2" x1="8.74" y1="13.02" x2="8.74" y2= "13.02" />
    <path class="fil1" d="M8.74 13.96c-0.06,0 -0.12,-0.01 -0.18,-0.02 -0.06,-0.01 -0.12,-0.03 -0.18,-0.05 -0.06,-0.02 -0.11,-0.05 -0.16,-0.09 -0.05,-0.04 -0.1,-0.07 -0.14,-0.12 -0.17,-0.18 -0.27,-0.42 -0.27,-0.66 0,-0.06 0.01,-0.12 0.02,-0.18 0.01,-0.06 0.03,-0.12 0.05,-0.18 0.02,-0.06 0.05,-0.11 0.09,-0.16 0.03,-0.05 0.07,-0.1 0.12,-0.14 0.04,-0.04 0.09,-0.08 0.14,-0.12 0.05,-0.03 0.11,-0.06 0.16,-0.09 0.06,-0.02 0.12,-0.04 0.18,-0.05 0.31,-0.06 0.63,0.04 0.85,0.26 0.04,0.04 0.08,0.09 0.12,0.14 0.03,0.05 0.06,0.11 0.09,0.16 0.02,0.06 0.04,0.12 0.05,0.18 0.01,0.06 0.02,0.12 0.02,0.18 0,0.25 -0.1,0.49 -0.28,0.66 -0.17,0.17 -0.42,0.28 -0.66,0.28z"/>
   </g>
   <g>
    <line class="fil2" x1="38.04" y1="43.95" x2="38.04" y2= "43.95" />
    <path class="fil1" d="M38.04 44.89c-0.06,0 -0.12,-0.01 -0.18,-0.02 -0.06,-0.01 -0.12,-0.03 -0.18,-0.05 -0.06,-0.02 -0.11,-0.05 -0.16,-0.09 -0.05,-0.03 -0.1,-0.07 -0.14,-0.12 -0.04,-0.04 -0.08,-0.09 -0.12,-0.14 -0.03,-0.05 -0.06,-0.11 -0.09,-0.16 -0.02,-0.06 -0.04,-0.12 -0.05,-0.18 -0.01,-0.06 -0.02,-0.12 -0.02,-0.18 0,-0.06 0.01,-0.12 0.02,-0.18 0.01,-0.06 0.03,-0.12 0.05,-0.18 0.02,-0.06 0.05,-0.11 0.09,-0.16 0.04,-0.05 0.07,-0.1 0.12,-0.14 0.04,-0.04 0.09,-0.08 0.14,-0.12 0.05,-0.03 0.11,-0.06 0.16,-0.09 0.06,-0.02 0.12,-0.04 0.18,-0.05 0.12,-0.02 0.25,-0.02 0.37,0 0.06,0.01 0.12,0.03 0.18,0.05 0.06,0.02 0.11,0.05 0.16,0.09 0.05,0.03 0.1,0.07 0.14,0.12 0.04,0.04 0.08,0.09 0.12,0.14 0.03,0.05 0.06,0.11 0.09,0.16 0.02,0.06 0.04,0.12 0.05,0.18 0.01,0.06 0.02,0.12 0.02,0.18 0,0.06 -0.01,0.12 -0.02,0.18 -0.01,0.06 -0.03,0.12 -0.05,0.18 -0.02,0.06 -0.05,0.11 -0.09,0.16 -0.03,0.05 -0.07,0.1 -0.12,0.14 -0.17,0.17 -0.42,0.28 -0.67,0.28z"/>
   </g>
   <g>
    <line class="fil2" x1="41.3" y1="42.1" x2="41.3" y2= "42.1" />
    <path class="fil1" d="M41.3 43.04c-0.06,0 -0.12,-0.01 -0.18,-0.02 -0.06,-0.01 -0.12,-0.03 -0.18,-0.05 -0.06,-0.02 -0.11,-0.05 -0.16,-0.09 -0.05,-0.03 -0.1,-0.07 -0.14,-0.12 -0.04,-0.04 -0.08,-0.09 -0.12,-0.14 -0.03,-0.05 -0.06,-0.11 -0.09,-0.16 -0.02,-0.06 -0.04,-0.12 -0.05,-0.18 -0.01,-0.06 -0.02,-0.12 -0.02,-0.18 0,-0.25 0.1,-0.49 0.27,-0.67 0.04,-0.04 0.09,-0.08 0.14,-0.12 0.05,-0.03 0.1,-0.06 0.16,-0.09 0.06,-0.02 0.12,-0.04 0.18,-0.05 0.31,-0.06 0.63,0.04 0.85,0.26 0.17,0.18 0.27,0.42 0.27,0.67 0,0.06 -0.01,0.12 -0.02,0.18 -0.01,0.06 -0.03,0.12 -0.05,0.18 -0.02,0.06 -0.05,0.11 -0.09,0.16 -0.03,0.05 -0.07,0.1 -0.12,0.14 -0.17,0.18 -0.42,0.27 -0.67,0.27z"/>
   </g>
   <g>
    <line class="fil2" x1="41.3" y1="27.89" x2="41.3" y2= "27.89" />
    <path class="fil1" d="M41.3 28.82c-0.06,0 -0.12,-0.01 -0.18,-0.02 -0.06,-0.01 -0.12,-0.03 -0.18,-0.05 -0.06,-0.02 -0.11,-0.05 -0.16,-0.09 -0.05,-0.03 -0.1,-0.07 -0.14,-0.12 -0.04,-0.04 -0.08,-0.09 -0.12,-0.14 -0.03,-0.05 -0.06,-0.11 -0.09,-0.16 -0.02,-0.06 -0.04,-0.12 -0.05,-0.18 -0.01,-0.06 -0.02,-0.12 -0.02,-0.18 0,-0.06 0.01,-0.12 0.02,-0.18 0.01,-0.06 0.03,-0.12 0.05,-0.18 0.02,-0.06 0.05,-0.11 0.09,-0.16 0.03,-0.05 0.07,-0.1 0.12,-0.14 0.04,-0.04 0.09,-0.08 0.14,-0.12 0.05,-0.03 0.1,-0.06 0.16,-0.09 0.06,-0.02 0.12,-0.04 0.18,-0.05 0.12,-0.02 0.25,-0.02 0.37,0 0.06,0.01 0.12,0.03 0.18,0.05 0.06,0.02 0.11,0.05 0.16,0.09 0.05,0.03 0.1,0.07 0.14,0.12 0.04,0.04 0.08,0.09 0.12,0.14 0.03,0.05 0.06,0.11 0.09,0.16 0.02,0.06 0.04,0.12 0.05,0.18 0.01,0.06 0.02,0.12 0.02,0.18 0,0.25 -0.1,0.49 -0.27,0.66 -0.04,0.04 -0.09,0.08 -0.14,0.12 -0.05,0.03 -0.11,0.06 -0.16,0.09 -0.06,0.02 -0.12,0.04 -0.18,0.05 -0.06,0.01 -0.12,0.02 -0.18,0.02z"/>
   </g>
   <g>
    <path class="fil1" d="M43.1 41.21c-3.49,0 -6.32,-2.84 -6.32,-6.32 0,-3.48 2.84,-6.32 6.32,-6.32 3.49,0 6.32,2.84 6.32,6.32 0,3.49 -2.84,6.32 -6.32,6.32zm0 -11.03c-2.6,0 -4.71,2.11 -4.71,4.71 0,2.6 2.11,4.71 4.71,4.71 2.6,0 4.71,-2.11 4.71,-4.71 0,-2.6 -2.11,-4.71 -4.71,-4.71z"/>
    <path class="fil0" d="M43.1 37.99c-1.71,0 -3.1,-1.39 -3.1,-3.1 0,-1.71 1.39,-3.1 3.1,-3.1 1.71,0 3.1,1.39 3.1,3.1 0,1.71 -1.39,3.1 -3.1,3.1zm0 -4.59c-0.82,0 -1.49,0.67 -1.49,1.49 0,0.82 0.67,1.49 1.49,1.49 0.82,0 1.49,-0.67 1.49,-1.49 0,-0.82 -0.67,-1.49 -1.49,-1.49z"/>
   </g>
  </g>
 </g>
</svg>
